# xmcd
#
# Track frame offsets:
#	150
#	17427
#	42226
#	65007
#	98332
#	110435
#	131882
#	145626
#	160261
#	188265
#	217546
#	237238
#	255121
#	274221
#
# Disc length: 3900 seconds
# Revision: 0
# Processed by: cddbd v1.5.2PL0 Copyright (c) Steve Scherf et al.
# Submitted via: dBpowerAMP V12.0
#
DISCID=ab0f3a0e
DTITLE=Roomful Of Blues - 45 LIVE
DYEAR=2013
DGENRE=Blues
TTITLE0=Just Keep On Rockin'
TTITLE1=It All Went Down The Drain
TTITLE2=Jambalaya
TTITLE3=Easy Baby
TTITLE4=That's Right
TTITLE5=Crawdad Hole
TTITLE6=You Don't Know
TTITLE7=Dress Up To Get Messed Up
TTITLE8=Straight Jacquet
TTITLE9=I Left My Baby
TTITLE10=Blue, Blue World
TTITLE11=Somebody's Got To Go
TTITLE12=Turn It Up
TTITLE13=Flip Flap Jack
EXTD=
EXTT0=
EXTT1=
EXTT2=
EXTT3=
EXTT4=
EXTT5=
EXTT6=
EXTT7=
EXTT8=
EXTT9=
EXTT10=
EXTT11=
EXTT12=
EXTT13=
PLAYORDER=
